<svg id="Layer_1" xmlns="http://www.w3.org/2000/svg" viewBox="0 0 90.3 17.7"><style>.st0{fill:#060e9f}</style><path class="st0" d="M19.8 2.7c.8-.7 1.7-1 2.7-1 1 0 1.9.2 2.6.6.9.4 1.5 1.1 1.7 1.9 0 .2.2.3.3.4.2.1.4.1.5.1.2 0 .3-.2.5-.3.1-.2.1-.4.1-.5-.2-1.3-1-2.2-2.2-2.9-1-.5-2.2-.8-3.4-.8-1.5 0-2.7.5-3.7 1.4-1 1-1.6 2.1-1.7 3.5 0 1.1.3 2.1 1.1 2.9 1 1.1 2.5 1.6 4.4 1.6 1.5 0 2.7.4 3.4 1.2.5.5.8 1.2.7 1.9 0 1-.5 1.8-1.2 2.5-.8.7-1.7 1-2.7 1-1 0-1.9-.2-2.6-.5-.9-.4-1.5-1.1-1.7-1.9 0-.2-.2-.3-.3-.4-.2-.1-.4-.1-.5-.1-.2 0-.3.2-.5.3-.1.2-.1.4-.1.5.3 1.2 1.1 2.1 2.3 2.8 1 .5 2.2.8 3.4.8 1.5 0 2.7-.5 3.7-1.4 1-1 1.6-2.1 1.7-3.5.1-1.1-.3-2.1-1.1-2.9-1-1.1-2.5-1.6-4.4-1.6-1.5 0-2.7-.4-3.4-1.2-.5-.5-.8-1.2-.7-1.9-.1-1 .4-1.8 1.1-2.5zM43.9.2h-9.7c-.2 0-.4.1-.5.2-.1.1-.2.3-.2.5V17c0 .2.1.4.2.5.1.1.3.2.5.2s.4-.1.5-.2c.1-.1.2-.3.2-.5v-4.7l2.2-2.3 1-1 1.7-2.1c.2-.2.2-.4.2-.6 0-.2-.1-.4-.2-.5-.1-.1-.3-.2-.5-.2s-.4.1-.5.2l-3.9 4.3V1.7h9c.2 0 .4-.1.5-.2.1-.1.2-.3.2-.5s-.1-.4-.2-.5c-.2-.2-.3-.3-.5-.3zM53.4.3c-1.8 0-3.4.6-4.7 1.9-1.3 1.3-1.9 2.8-1.9 4.7 0 1.8.6 3.4 1.9 4.7 1.3 1.3 2.8 1.9 4.7 1.9 1.8 0 3.4-.6 4.7-1.9 1.3-1.3 1.9-2.8 1.9-4.7 0-1.8-.6-3.4-1.9-4.7C56.8.9 55.2.3 53.4.3zm3.7 10.2c-1 1-2.2 1.5-3.6 1.5s-2.6-.5-3.6-1.5-1.5-2.2-1.5-3.6.5-2.6 1.5-3.6 2.2-1.5 3.6-1.5 2.6.5 3.6 1.5 1.5 2.2 1.5 3.6c0 1.3-.5 2.6-1.5 3.6zM73.8 16.3h-7.9V1c0-.2-.1-.4-.2-.5-.1-.1-.3-.2-.5-.2s-.4.1-.5.2c-.1.1-.2.3-.2.5v16c0 .2.1.4.2.5.1.1.3.2.5.2h8.6c.2 0 .4-.1.5-.2.1-.1.2-.3.2-.5s-.1-.4-.2-.5c-.2-.2-.3-.2-.5-.2zM90.1 16.5l-7.3-7.6 7-7.4c.2-.2.3-.3.3-.5s-.1-.4-.2-.5c-.1-.1-.3-.2-.5-.2s-.4.1-.5.2l-9.1 9.6V.9c0-.2-.1-.4-.2-.5-.1-.1-.3-.2-.5-.2s-.4.1-.5.2c-.1.1-.2.3-.2.5v15.9c0 .2.1.4.2.5.1.1.3.2.5.2s.4-.1.5-.2c.1-.1.2-.3.2-.5v-4.7L82 9.8l7.2 7.6c.1.1.3.2.5.2s.4-.1.5-.2c.1-.1.2-.3.2-.5-.1-.1-.1-.3-.3-.4zM58.7 16.3H48.3c-.4 0-.7.3-.7.7 0 .4.3.7.7.7h10.4c.4 0 .7-.3.7-.7 0-.4-.3-.7-.7-.7zM11.4 0c-.2 0-.4.1-.5.2-.1.1-.2.3-.2.5v4.9L8.5 7.8l-1 1L5.8 11c-.1.1-.2.3-.2.5s.1.4.2.5c.1.1.3.2.5.2s.4-.1.5-.2l3.9-4.3v4c0 1.3-.5 2.4-1.4 3.3-.9.9-2 1.4-3.3 1.4-1.3 0-2.4-.5-3.3-1.4-.9-.9-1.4-2-1.4-3.3V.7c0-.2-.1-.4-.2-.5C1.1.1.9 0 .7 0S.3.1.2.2 0 .5 0 .7v10.9c0 1.7.6 3.1 1.8 4.3 1.2 1.2 2.6 1.8 4.3 1.8 1.7 0 3.1-.6 4.3-1.8 1.2-1.2 1.8-2.6 1.8-4.3V.7c0-.2-.1-.4-.2-.5-.2-.1-.4-.2-.6-.2z"/></svg>