<?xml version="1.0" encoding="utf-8"?>
<!-- Generator: Adobe Illustrator 19.0.0, SVG Export Plug-In . SVG Version: 6.00 Build 0)  -->
<svg version="1.1" id="Layer_1" xmlns="http://www.w3.org/2000/svg" xmlns:xlink="http://www.w3.org/1999/xlink" x="0px" y="0px"
	 viewBox="0 0 90.3 17.7" style="enable-background:new 0 0 90.3 17.7;" xml:space="preserve">
<style type="text/css">
	.st0{fill:#060E9F;}
</style>
<g>
	<path class="st0" d="M19.8,2.7c0.8-0.7,1.7-1,2.7-1c1,0,1.9,0.2,2.6,0.6c0.9,0.4,1.5,1.1,1.7,1.9c0,0.2,0.2,0.3,0.3,0.4
		c0.2,0.1,0.4,0.1,0.5,0.1c0.2,0,0.3-0.2,0.5-0.3c0.1-0.2,0.1-0.4,0.1-0.5C28,2.6,27.2,1.7,26,1c-1-0.5-2.2-0.8-3.4-0.8
		c-1.5,0-2.7,0.5-3.7,1.4c-1,1-1.6,2.1-1.7,3.5c0,1.1,0.3,2.1,1.1,2.9c1,1.1,2.5,1.6,4.4,1.6h0c0,0,0,0,0,0c0,0,0,0,0,0
		c1.5,0,2.7,0.4,3.4,1.2c0.5,0.5,0.8,1.2,0.7,1.9c0,1-0.5,1.8-1.2,2.5c-0.8,0.7-1.7,1-2.7,1c-1,0-1.9-0.2-2.6-0.5
		c-0.9-0.4-1.5-1.1-1.7-1.9c0-0.2-0.2-0.3-0.3-0.4c-0.2-0.1-0.4-0.1-0.5-0.1c-0.2,0-0.3,0.2-0.5,0.3c-0.1,0.2-0.1,0.4-0.1,0.5
		c0.3,1.2,1.1,2.1,2.3,2.8c1,0.5,2.2,0.8,3.4,0.8c1.5,0,2.7-0.5,3.7-1.4c1-1,1.6-2.1,1.7-3.5c0.1-1.1-0.3-2.1-1.1-2.9
		c-1-1.1-2.5-1.6-4.4-1.6c0,0,0,0,0,0c0,0,0,0,0,0c-1.5,0-2.7-0.4-3.4-1.2c-0.5-0.5-0.8-1.2-0.7-1.9C18.6,4.2,19.1,3.4,19.8,2.7z"/>
	<path class="st0" d="M43.9,0.2l-9.7,0c-0.2,0-0.4,0.1-0.5,0.2c-0.1,0.1-0.2,0.3-0.2,0.5v0v15.9V17c0,0.2,0.1,0.4,0.2,0.5
		c0.1,0.1,0.3,0.2,0.5,0.2c0.2,0,0.4-0.1,0.5-0.2c0.1-0.1,0.2-0.3,0.2-0.5v-4.7l2.2-2.3l1-1l1.7-2.1C40,6.7,40,6.5,40,6.3
		c0-0.2-0.1-0.4-0.2-0.5c-0.1-0.1-0.3-0.2-0.5-0.2c-0.2,0-0.4,0.1-0.5,0.2l-3.9,4.3V9.7V8.2V1.7l9,0c0.2,0,0.4-0.1,0.5-0.2
		c0.1-0.1,0.2-0.3,0.2-0.5c0-0.2-0.1-0.4-0.2-0.5C44.2,0.3,44.1,0.2,43.9,0.2z"/>
	<path class="st0" d="M53.4,0.3c-1.8,0-3.4,0.6-4.7,1.9c-1.3,1.3-1.9,2.8-1.9,4.7c0,1.8,0.6,3.4,1.9,4.7c1.3,1.3,2.8,1.9,4.7,1.9
		c1.8,0,3.4-0.6,4.7-1.9c1.3-1.3,1.9-2.8,1.9-4.7c0-1.8-0.6-3.4-1.9-4.7C56.8,0.9,55.2,0.3,53.4,0.3z M57.1,10.5
		c-1,1-2.2,1.5-3.6,1.5c-1.4,0-2.6-0.5-3.6-1.5c-1-1-1.5-2.2-1.5-3.6c0-1.4,0.5-2.6,1.5-3.6c1-1,2.2-1.5,3.6-1.5
		c1.4,0,2.6,0.5,3.6,1.5c1,1,1.5,2.2,1.5,3.6C58.6,8.2,58.1,9.5,57.1,10.5z"/>
	<path class="st0" d="M73.8,16.3h-7.9V1c0-0.2-0.1-0.4-0.2-0.5c-0.1-0.1-0.3-0.2-0.5-0.2c-0.2,0-0.4,0.1-0.5,0.2
		c-0.1,0.1-0.2,0.3-0.2,0.5v16c0,0.2,0.1,0.4,0.2,0.5c0.1,0.1,0.3,0.2,0.5,0.2h8.6c0.2,0,0.4-0.1,0.5-0.2c0.1-0.1,0.2-0.3,0.2-0.5
		c0-0.2-0.1-0.4-0.2-0.5C74.1,16.3,74,16.3,73.8,16.3z"/>
	<path class="st0" d="M90.1,16.5l-7.3-7.6l7-7.4C90,1.3,90.1,1.2,90.1,1c0-0.2-0.1-0.4-0.2-0.5c-0.1-0.1-0.3-0.2-0.5-0.2
		c-0.2,0-0.4,0.1-0.5,0.2l-9.1,9.6V0.9c0-0.2-0.1-0.4-0.2-0.5c-0.1-0.1-0.3-0.2-0.5-0.2c-0.2,0-0.4,0.1-0.5,0.2
		c-0.1,0.1-0.2,0.3-0.2,0.5v15.9c0,0.2,0.1,0.4,0.2,0.5c0.1,0.1,0.3,0.2,0.5,0.2c0.2,0,0.4-0.1,0.5-0.2c0.1-0.1,0.2-0.3,0.2-0.5
		v-4.7l2.2-2.3l7.2,7.6c0.1,0.1,0.3,0.2,0.5,0.2c0.2,0,0.4-0.1,0.5-0.2c0.1-0.1,0.2-0.3,0.2-0.5C90.3,16.8,90.3,16.6,90.1,16.5z"/>
	<path class="st0" d="M58.7,16.3H48.3c-0.4,0-0.7,0.3-0.7,0.7c0,0.4,0.3,0.7,0.7,0.7h10.4c0.4,0,0.7-0.3,0.7-0.7
		C59.4,16.6,59.1,16.3,58.7,16.3z"/>
	<path class="st0" d="M11.4,0c-0.2,0-0.4,0.1-0.5,0.2c-0.1,0.1-0.2,0.3-0.2,0.5v0.1c0,0,0,0,0,0.1v4.7L8.5,7.8l-1,1L5.8,11
		c-0.1,0.1-0.2,0.3-0.2,0.5c0,0.2,0.1,0.4,0.2,0.5c0.1,0.1,0.3,0.2,0.5,0.2c0.2,0,0.4-0.1,0.5-0.2l3.9-4.3v2.1h0v1.9
		c0,1.3-0.5,2.4-1.4,3.3c-0.9,0.9-2,1.4-3.3,1.4c-1.3,0-2.4-0.5-3.3-1.4c-0.9-0.9-1.4-2-1.4-3.3V0.7c0-0.2-0.1-0.4-0.2-0.5
		C1.1,0.1,0.9,0,0.7,0C0.5,0,0.3,0.1,0.2,0.2S0,0.5,0,0.7v10.9c0,1.7,0.6,3.1,1.8,4.3c1.2,1.2,2.6,1.8,4.3,1.8
		c1.7,0,3.1-0.6,4.3-1.8c1.2-1.2,1.8-2.6,1.8-4.3V9.7V0.9v0V0.7c0-0.2-0.1-0.4-0.2-0.5C11.8,0.1,11.6,0,11.4,0z"/>
</g>
</svg>
